# xmcd CD database file generated by OrangeCD 6.5
#
# Track frame offsets:
#	150
#	20800
#	47200
#	62450
#	81112
#	97850
#	120650
#	136125
#	161837
#	180787
#	204537
#	226437
#
# Disc length: 3400 seconds
#
# Revision: 3
# Processed by: cddbd v1.5.2PL0 Copyright (c) Steve Scherf et al.
# Submitted via: OrangeCD 6.5
#
DISCID=950d460c
DTITLE=Snooky Pryor - In This Mess Up To My Chest
DYEAR=1994
DGENRE=Blues
TTITLE0=Bury You in a Paper Sack
TTITLE1=Pay for All Our Sins
TTITLE2=Stick Way Out Behind
TTITLE3=Can I Get a Witness¿
TTITLE4=When the Saints Go Marching In
TTITLE5=Take It Easy, Greasy
TTITLE6=Slow Down, Baby
TTITLE7=Bluebird Blues
TTITLE8=Hello, Little Baby
TTITLE9=She Tried to Ruin Me
TTITLE10=My Baby's Too Sweet to Die
TTITLE11=Judgement Day
EXTD=
EXTT0=
EXTT1=
EXTT2=
EXTT3=
EXTT4=
EXTT5=
EXTT6=
EXTT7=
EXTT8=
EXTT9=
EXTT10=
EXTT11=
PLAYORDER=
